<svg xmlns="http://www.w3.org/2000/svg" viewBox="0 0 560 560"><title>behance</title><path d="M0,105.56c1.93.1,3.85.28,5.78.28,53.05,0,106.1-.08,159.15.06,19.61.05,39,2.14,57.35,9.67,22.17,9.09,38.74,24.19,46.44,47.12,8.38,25,8.48,50.12-3.5,74.29-5.79,11.69-15.4,19.9-26.56,26.37-1.79,1-3.56,2.13-5.32,3.22-.11.07-.13.26-.44.89,4.41,2.2,9,4.21,13.26,6.65,23.88,13.52,35.35,35,38.48,61.43,2.93,24.72-1.6,48.13-14.82,69.43-11.05,17.8-26.06,31.18-45.76,38.92-22.63,8.89-46.42,10.13-70.3,10.2-49.33.16-98.65,0-148,.06-1.93,0-3.85.18-5.78.28Q0,280,0,105.56ZM80.5,393.67c10.17,0,19.83.11,29.48,0,20.24-.27,40.5-.22,60.72-1.16,11.7-.54,22.43-4.76,30.4-14,10.8-12.49,12.07-27.38,10.24-42.9s-10.93-25.55-25.41-30.24a80.8,80.8,0,0,0-22.72-4.1c-25.9-.59-51.83-.31-77.74-.6-4.11,0-5.31,1.08-5.29,5.22.17,27.7.09,55.41.1,83.11C80.28,390.32,80.4,391.63,80.5,393.67Zm40.79-150.38c10.43,0,20.86.33,31.27-.11a138.83,138.83,0,0,0,23-2.64c10.56-2.24,20.34-6.59,25.41-17,4.27-8.79,5.07-18.32,3.44-27.93-2.18-12.89-9-22.1-22.24-24.84-9.57-2-19.34-3.82-29.06-4.09-22.92-.63-45.87-.21-68.8-.42-3.6,0-4.11,1.43-4.09,4.5.1,22.64.13,45.28,0,67.91,0,3.85,1.34,4.76,4.91,4.71C97.16,243.19,109.23,243.3,121.29,243.29Z"/><path d="M560,337.25c-1.18-.09-2.36-.26-3.55-.26H378.14c.52,4.79.78,9.18,1.49,13.5,4.57,27.85,24.35,45.82,52.53,47.93,11.72.88,23.2.37,34.1-4.7,8.47-3.93,15.53-9.51,20-17.76,2.28-4.2,5.06-5.7,9.89-5.62,18.18.3,36.37.12,54.55.12h5.73c-.88,4-1.24,7.55-2.43,10.77-7.08,19.11-19.53,34.28-35.51,46.58-23.48,18.08-50.8,23.87-79.72,24C406,452,376.6,442,351,421.54c-17.74-14.21-28.28-33.21-33.33-55.16-7.51-32.68-7.26-65.41,2-97.71a107.47,107.47,0,0,1,40.92-58.6c24.19-17.67,51.66-23.69,81-22.73,22,.72,43.13,5.3,62.44,16.44,15.31,8.83,27,21.3,36.35,36.15,11.9,18.88,17.21,39.72,18.72,61.74a30.53,30.53,0,0,0,.9,4.28ZM491.58,293.7c-.22-30.3-21.49-52.54-55.87-52.78-36.92-.25-52.67,26.53-55.23,52.78Z"/><path d="M365.87,154.91V120.56H505.65c0,10.84.05,21.4-.11,31.95,0,.8-1.43,1.84-2.42,2.28s-2.05.11-3.09.11H365.87Z"/><path d="M80.5,393.67c-.1-2-.22-3.36-.22-4.68,0-27.7.07-55.41-.1-83.11,0-4.14,1.18-5.27,5.29-5.22,25.91.29,51.84,0,77.74.6a80.8,80.8,0,0,1,22.72,4.1c14.47,4.69,23.56,14.66,25.41,30.24s.57,30.41-10.24,42.9c-8,9.23-18.71,13.45-30.4,14-20.21.93-40.47.89-60.72,1.16C100.33,393.78,90.68,393.67,80.5,393.67Z" fill="#fff"/><path d="M121.29,243.29c-12.06,0-24.13-.11-36.19.07-3.58.05-4.94-.86-4.91-4.71.16-22.64.13-45.28,0-67.91,0-3.07.49-4.53,4.09-4.5,22.93.2,45.88-.22,68.8.42,9.72.27,19.49,2.1,29.06,4.09,13.24,2.74,20.06,12,22.24,24.84,1.63,9.61.83,19.14-3.44,27.93-5.07,10.42-14.85,14.77-25.41,17a138.83,138.83,0,0,1-23,2.64C142.15,243.62,131.72,243.29,121.29,243.29Z" fill="#fff"/><path d="M491.58,293.7H380.49c2.56-26.25,18.31-53,55.23-52.78C470.1,241.15,491.36,263.39,491.58,293.7Z" fill="#fff"/></svg>