<svg xmlns="http://www.w3.org/2000/svg" viewBox="0 0 1330 1330"><title>behance</title><path d="M0,250.7c4.58.23,9.16.66,13.73.67,126,0,252-.19,378,.15,46.56.13,92.56,5.08,136.2,23,52.66,21.58,92,57.44,110.3,111.92,19.91,59.31,20.13,119-8.3,176.43-13.75,27.76-36.57,47.27-63.09,62.63-4.26,2.47-8.44,5.07-12.64,7.64-.25.16-.32.62-1,2.12,10.48,5.22,21.27,10,31.5,15.8,56.7,32.12,84,83.18,91.38,145.89,7,58.71-3.79,114.31-35.21,164.9-26.25,42.26-61.89,74.06-108.69,92.44-53.75,21.12-110.24,24.05-167,24.23-117.15.37-234.3.1-351.45.14-4.58,0-9.15.43-13.73.67Q0,665,0,250.7ZM191.2,935c24.16,0,47.09.25,70-.05,48.08-.63,96.2-.53,144.2-2.75,27.78-1.28,53.26-11.31,72.21-33.22,25.66-29.67,28.68-65,24.32-101.89s-26-60.67-60.34-71.81c-17.27-5.6-35.87-9.33-54-9.74-61.52-1.4-123.09-.74-184.63-1.42-9.76-.11-12.62,2.56-12.56,12.4.41,65.8.2,131.6.23,197.39C190.67,927,191,930.13,191.2,935Zm96.87-357.16c24.76,0,49.55.77,74.27-.26,18.28-.76,36.76-2.48,54.61-6.28C442,566,465.26,555.62,477.3,530.87c10.15-20.88,12-43.51,8.17-66.34-5.18-30.61-21.37-52.48-52.82-59-22.73-4.71-45.92-9.07-69-9.7-54.43-1.5-108.93-.51-163.4-1-8.56-.08-9.75,3.39-9.72,10.69.23,53.76.31,107.53-.07,161.29-.07,9.13,3.17,11.3,11.67,11.17C230.76,577.57,259.41,577.83,288.07,577.81Z" fill="#fff"/><path d="M1330,801c-2.81-.22-5.61-.63-8.42-.63q-206,0-412.07,0H898.09c1.23,11.37,1.86,21.8,3.55,32.06,10.85,66.15,57.84,108.81,124.77,113.83,27.84,2.09,55.1.87,81-11.15,20.11-9.34,36.89-22.58,47.53-42.18,5.41-10,12-13.54,23.48-13.34,43.18.72,86.37.29,129.56.29h13.61c-2.09,9.54-2.94,17.92-5.78,25.58-16.83,45.39-46.39,81.4-84.33,110.62-55.77,43-120.64,56.69-189.35,57.09-77.88.46-147.71-23.32-208.41-72-42.13-33.75-67.18-78.89-79.15-131-17.83-77.63-17.25-155.35,4.68-232.05,16.33-57.12,48.84-103.84,97.19-139.17,57.44-42,122.7-56.27,192.33-54,52.25,1.71,102.42,12.58,148.29,39,36.35,21,64.1,50.59,86.32,85.85,28.27,44.84,40.88,94.33,44.47,146.62.23,3.42,1.41,6.78,2.14,10.16ZM1167.51,697.53c-.53-72-51-124.79-132.68-125.35-87.68-.6-125.1,63-131.16,125.35Z" fill="#fff"/><path d="M868.94,367.9V286.34h332c0,25.75.13,50.82-.25,75.88,0,1.9-3.4,4.37-5.74,5.42-2.07.93-4.87.25-7.35.25H868.94Z" fill="#fff"/></svg>