<svg xmlns="http://www.w3.org/2000/svg" viewBox="0 0 1330 1330"><title>linked-in</title><path d="M1232,664.46q0,240.54,0,481.08c0,21.21-5.85,40.23-19.9,56.32-16.39,18.78-37.4,28.85-62.12,28.86q-484.7.31-969.41-.05c-44.65,0-76.83-34.49-80.61-71.68a137.45,137.45,0,0,1-.89-13.84q-.06-481.36,0-962.73c0-40.44,23.48-71.62,61.67-81.44a86.88,86.88,0,0,1,21.36-2.84q483.31-.21,966.62-.11c39.82,0,73.07,26.36,81.44,64.93a97.21,97.21,0,0,1,1.76,20.42Q1232.09,423.91,1232,664.46ZM1065.8,1063.57v-7.34c0-34.89.12-69.78,0-104.67-.31-76.24-.41-152.48-1.37-228.71-.22-17.81-2.77-35.69-5.53-53.34-4.48-28.59-12.48-56.17-27.37-81.34Q1003.58,541,952,522.54c-30.84-11-62.66-14.31-95.21-13.46a197.87,197.87,0,0,0-50.7,7.79c-41.74,12.2-75,35.85-98.73,72.56-1.42,2.2-2.7,4.49-4,6.74l-1.42-.43c-.1-1.94-.27-3.87-.28-5.81q0-30.34,0-60.69c0-7.45-.1-7.58-7.36-7.58q-73.77,0-147.54,0c-7,0-7.22.23-7.22,7.22q0,263.9-.13,527.8c0,5.8,1.79,7,7.28,7,51.22-.2,102.44-.12,153.66-.12,8,0,8,0,8-8.14q.5-142.47,1.1-284.94a164.83,164.83,0,0,1,10-55.31c9.56-26.46,26.84-45.3,54.46-53.2a125.26,125.26,0,0,1,48.78-4c28.57,3.19,49.1,17.25,60.71,43.64,8.93,20.27,12,42,12.14,63.77.47,96.87.27,193.75.32,290.62,0,7.55,0,7.56,7.62,7.56H1065.8Zm-799.37,0h6.66c51.78,0,103.56-.11,155.34.14,6,0,7-2.07,6.95-7.36q-.17-263.35-.1-526.7c0-8,0-8-8.11-8H274.62c-8.19,0-8.19,0-8.19,8.1q0,263.07,0,526.15C266.43,1058.1,266.43,1060.31,266.43,1063.57ZM253.07,350.86c-.42,54.31,42.48,98.84,97.85,98.54,56-.31,98.22-42.86,98.52-98.18.3-54.74-44.16-98-98.43-98.3C297.5,252.59,252.23,297.65,253.07,350.86Z" fill="#fff"/><path d="M1065.8,1063.57H903.45c-7.6,0-7.61,0-7.62-7.56,0-96.87.15-193.75-.32-290.62-.11-21.79-3.21-43.49-12.14-63.77-11.62-26.39-32.15-40.45-60.71-43.64a125.26,125.26,0,0,0-48.78,4c-27.62,7.89-44.9,26.73-54.46,53.2a164.83,164.83,0,0,0-10,55.31q-.79,142.47-1.1,284.94c0,8.14,0,8.14-8,8.14-51.22,0-102.44-.08-153.66.12-5.5,0-7.29-1.23-7.28-7q.23-263.9.13-527.8c0-7,.23-7.22,7.22-7.22q73.77,0,147.54,0c7.25,0,7.35.14,7.36,7.58q0,30.34,0,60.69c0,1.94.18,3.87.28,5.81l1.42.43c1.34-2.25,2.62-4.54,4-6.74,23.71-36.7,57-60.36,98.73-72.56a197.87,197.87,0,0,1,50.7-7.79c32.55-.85,64.37,2.47,95.21,13.46q51.71,18.42,79.53,65.64c14.9,25.17,22.9,52.76,27.37,81.34,2.76,17.65,5.31,35.53,5.53,53.34,1,76.23,1.06,152.47,1.37,228.71.14,34.89,0,69.78,0,104.67Z" fill="none"/><path d="M266.43,1063.57c0-3.26,0-5.47,0-7.69q0-263.07,0-526.15c0-8.09,0-8.1,8.19-8.1H427.18c8.08,0,8.11,0,8.11,8q0,263.35.1,526.7c0,5.28-1,7.38-6.95,7.36-51.78-.25-103.56-.14-155.34-.14Z" fill="none"/><path d="M253.07,350.86c-.83-53.21,44.43-98.27,97.94-97.94,54.26.34,98.72,43.56,98.43,98.3-.3,55.32-42.56,97.87-98.52,98.18C295.54,449.71,252.65,405.18,253.07,350.86Z" fill="none"/></svg>