<svg xmlns="http://www.w3.org/2000/svg" viewBox="0 0 198 180"><title>vimeo</title><path d="M112.5,58.79c3.43-15.5,24.78-36.82,45.79-35,15.49,1.37,22.39,9.8,18.78,24.95a149,149,0,0,1-7.82,22.9c-9.39,22.39-21.17,43.46-38.08,61.1a127.94,127.94,0,0,1-22.63,18.9c-16.46,10.63-28.84,6.78-35.91-11.46C67.84,127.89,65.13,114.77,61.4,102q-3.87-13.21-8-26.33a38.51,38.51,0,0,0-2.8-6.38c-1.91-3.61-5-5-9-4q-2.19.54-4.36,1.17c-8.16,2.39-9.56,1.84-14.15-6C35.78,50.26,46.69,37.62,61.73,30.34,73,24.9,81.59,27.81,85.86,39.57c3.42,9.43,4.88,19.6,6.77,29.53,1.48,7.8,1.66,15.88,3.6,23.53a39.32,39.32,0,0,0,7.26,14c3.49,4.47,8.44,4.5,12.1.17,8.6-10.19,15.29-21.51,15.79-35.32.32-8.7-3.65-12.43-12.48-12.66C116.86,58.74,114.81,58.79,112.5,58.79Z" fill="#fff"/></svg>