<svg xmlns="http://www.w3.org/2000/svg" viewBox="0 0 1500 318.58"><title>wordmark</title><path d="M1,282.89c-.77-11.62-1-23.53-1-35.41s.55-23.71,1.28-35.58c.88-11.87,1.91-23.76,3.58-35.63s3.67-23.74,6.31-35.55a310.81,310.81,0,0,1,10.08-35.12A184.75,184.75,0,0,1,37,71.8,97.72,97.72,0,0,1,48.3,56.33a69.2,69.2,0,0,1,14.79-13,63.79,63.79,0,0,1,18.23-8,65.74,65.74,0,0,1,19.52-1.9c1.53.12,2.76,0,4.55.31l5.1.7A78.41,78.41,0,0,1,120,36.93a73.22,73.22,0,0,1,17.76,8.26A72,72,0,0,1,153,57.91a80.87,80.87,0,0,1,6.39,7.83,83.35,83.35,0,0,1,5.19,8.75,77.06,77.06,0,0,1,6.85,19.26,78.06,78.06,0,0,1,1.43,10.12l.31,5.09c.06,1.7-.07,3.37-.11,5.06a104.16,104.16,0,0,1-9.32,38.29,139,139,0,0,1-20.22,32.06c-2,2.4-4.09,4.66-6.13,7l-3.08,3.45-3.25,3.26-6.5,6.48-6.77,6.11c-4.43,4.16-9.24,7.81-13.86,11.66C99.2,226,94.33,229.51,89.45,233l-15,9.74c-5.2,2.93-10.31,6-15.54,8.76l-1.79-5.75h0c4.83.15,9.53.29,14.29.58s9.49.52,14.24.94c9.49.82,19,1.91,28.51,3.53,4.76.82,9.5,1.89,14.3,3l7.28,1.7c2.44.61,4.9,1.3,7.37,2.13a58.41,58.41,0,0,1,7.37,3l3.6,2c1.2.73,2.34,1.58,3.51,2.39a37.45,37.45,0,0,1,6.43,6.24,41,41,0,0,1,2.64,4,44.39,44.39,0,0,1,2,4.48,8.8,8.8,0,0,1-14.94,8.78l-1.72-2a18.36,18.36,0,0,1-1.19-1.82c-.53-.58-.87-1.22-1.38-1.84l-1.6-1.89-1.85-1.91L143.85,277l-2.29-1.89c-1.62-1.23-3.27-2.51-5.06-3.73s-3.65-2.38-5.59-3.46a59.3,59.3,0,0,0-6-3c-2.1-.84-4.2-1.7-6.38-2.38s-4.36-1.38-6.55-2c-4.42-1.28-8.91-2.36-13.44-3.34s-9.12-1.74-13.72-2.44-9.22-1.33-13.87-1.73-9.32-.79-13.9-.86h0A3,3,0,0,1,54.53,247l.7-.7c4.18-4.15,8.48-8.07,12.69-12.09L80.32,222c8-8.35,15.95-16.57,23.16-25.32l5.39-6.54,5-6.76,2.5-3.37,2.31-3.47c1.52-2.32,3.12-4.58,4.56-6.93a234.42,234.42,0,0,0,15-28.49,113.11,113.11,0,0,0,8.55-29.22,81.39,81.39,0,0,0,.77-14.73A62.3,62.3,0,0,0,145,82.74a61.31,61.31,0,0,0-2.56-7,62.34,62.34,0,0,0-3.68-6.52,47,47,0,0,0-10.1-11.33,44.94,44.94,0,0,0-13.3-7.79A51.77,51.77,0,0,0,108,47.88l-3.58-.57a11.26,11.26,0,0,0-2-.2L100.19,47A47.41,47.41,0,0,0,85,48.81,42.43,42.43,0,0,0,71.55,55.6C63.43,61.66,57.4,70.59,53,80.38a154.13,154.13,0,0,0-9.72,31.46,327.67,327.67,0,0,0-4.88,33.42c-1.18,11.28-2,22.65-2.77,34-.59,11.43-1.24,22.88-1.68,34.37l-1.35,34.56c-.5,11.52-.93,23-1.77,34.78A14.94,14.94,0,0,1,1,283Z"/><path d="M345,187.29l-2,.49a25.22,25.22,0,0,0-5.29,1.69,37.53,37.53,0,0,0-7.19,3.8c-1.28,1-2.72,1.84-4,3.07a51.53,51.53,0,0,0-4,3.92,45.23,45.23,0,0,0-3.83,4.7,56.19,56.19,0,0,0-3.54,5.37,99.94,99.94,0,0,0-10.25,25.26,65.53,65.53,0,0,0-1.75,12.62c0,3.94.42,7.46,2.25,10.6s5.25,5.82,9.5,7.39A42.52,42.52,0,0,0,328.47,268l3.41-.05c1.12-.06,2.24-.25,3.34-.36,2.19-.31,4.33-.38,6.36-.88A101.33,101.33,0,0,0,352.66,264a81,81,0,0,0,8.42-2.77c4.63-1.72,7.23-2.81,7.23-2.81l.19-.08a4.18,4.18,0,0,1,3.24,7.72l-.22.09s-2.77,1-7.53,2.89c-2.36,1-5.34,2-8.73,3.15s-7.28,2.41-11.59,3.63c-2.12.71-4.47,1.09-6.84,1.66-1.2.25-2.4.57-3.66.77l-3.88.55a69.06,69.06,0,0,1-17.27.28c-6.22-.86-13.31-2.94-19.42-8a34.84,34.84,0,0,1-11.69-20,46.56,46.56,0,0,1,.87-21.38,60,60,0,0,1,8-17.72,68.12,68.12,0,0,1,11.62-13.38,72.62,72.62,0,0,1,6.39-5,62.66,62.66,0,0,1,6.36-4.07A74.92,74.92,0,0,1,326,184a64.92,64.92,0,0,1,9.79-2.52,37.33,37.33,0,0,1,6.13-.65l2.07-.14a3.34,3.34,0,0,1,1,6.59Z"/><path d="M475.61,286l-.59-.23a9.9,9.9,0,0,1-4.89-3.52,20.26,20.26,0,0,1-3.09-5,27.36,27.36,0,0,1-1.39-3.28,33,33,0,0,1-1.15-3.28l-.92-4.27-1.07-4.56c-1.49-6.07-3.13-12.15-5.19-18.2a71.66,71.66,0,0,0-8.93-17.64,36,36,0,0,0-7.68-8.13,18.53,18.53,0,0,0-6.05-2.87,14.91,14.91,0,0,0-7.14,0c-4.57,1.14-7.63,3.65-10.51,5.87-1.13.94-2.22,1.89-3.3,2.84.05-2.68.09-5.37.15-8q.58-25,1.57-49.95c.7-16.63,1.54-33.25,2.63-49.83.6-8.26,1.13-16.6,1.89-24.77.38-4.12.65-8.16,1.12-12.35l1.28-12.48a10.54,10.54,0,0,0-21-2.38l-1.54,12.45c-.54,4.12-.93,8.41-1.41,12.61-1,8.47-1.66,16.82-2.45,25.22-1.46,16.78-2.65,33.56-3.72,50.34s-1.9,33.55-2.64,50.33-1.35,33.52-1.77,50.42a12.61,12.61,0,0,0,24.51,4.48l.2-.57h0l4.69-16.34c.77-2.77,1.66-5.46,2.39-8.23s1.43-5.55,2.31-8.2a27.11,27.11,0,0,1,3.42-7.25,9.94,9.94,0,0,1,4.72-3.86c1.35-.39,2.42-.08,3.94,1.21a19.74,19.74,0,0,1,4,5.82,63.8,63.8,0,0,1,3,7.65c1,2.64,1.72,5.44,2.63,8.17,1.73,5.54,3.22,11.26,4.53,17.05l1.94,9a39.6,39.6,0,0,0,1.8,5.36,41.55,41.55,0,0,0,2.65,4.92,23.21,23.21,0,0,0,9.18,8.32,14.06,14.06,0,0,0,6.81,1.19,11.09,11.09,0,0,0,5.93-2.32,3.4,3.4,0,0,0,1-1.4A3.36,3.36,0,0,0,475.61,286Z"/><path d="M223.38,209.1l-.61-.25a7.31,7.31,0,0,0-1.56-.55,11.58,11.58,0,0,0-4.8-.25,14.11,14.11,0,0,0-6.48,3.38,41.81,41.81,0,0,0-7.52,9,86.46,86.46,0,0,0-7.06,13.44A145.79,145.79,0,0,0,189.62,250c-.88,2.79-1.92,5.57-2.76,8.35a30.69,30.69,0,0,0-1.65,7.8,19.44,19.44,0,0,0,.1,2.13c0,.18-.43.24.15.37a8.15,8.15,0,0,0,3.24-.74c1.4-.49,2.95-1.1,4.38-1.76a69.17,69.17,0,0,0,16.16-10.87,185.67,185.67,0,0,0,13.91-14c2.26-2.41,4.47-4.86,7-7.28a54.58,54.58,0,0,1,4.19-3.67,21.41,21.41,0,0,1,6.77-3.72,14.47,14.47,0,0,1,3.11-.57,13.16,13.16,0,0,1,2,0l.52.05.26,0,.78.15.27.05a12.5,12.5,0,0,1,7.56,5.37,17.08,17.08,0,0,1,2.11,4.63,30.69,30.69,0,0,1,.75,3.18c.66,3.63.82,6.23,1.15,8.61a30.26,30.26,0,0,0,2.4,9.52,10.37,10.37,0,0,0,3,4,25.91,25.91,0,0,0,4.53,2.76l2.07,1,.19.1a6.27,6.27,0,0,1-.19,11.32,15.39,15.39,0,0,1-3,.85,22.86,22.86,0,0,1-9.44,0,22.37,22.37,0,0,1-7.17-2.91,23.26,23.26,0,0,1-6.82-6.63c-3.8-5.59-4.93-12.18-5.47-17.91l-.56-7.75-.12-1c0-.16,0-.1.43.62a6.74,6.74,0,0,0,4.16,2.7l-.27-.07.64.12.12,0,.24,0a5.18,5.18,0,0,0,.84,0,3.35,3.35,0,0,0,.89-.18c.51-.29-.46,0-1.33.52a35.52,35.52,0,0,0-3.21,2.15c-2.31,1.71-4.84,3.68-7.42,5.74-10.45,8.21-22.28,17.58-36.44,23.5-1.79.75-3.52,1.42-5.45,2a23.06,23.06,0,0,1-7,1.41,12.49,12.49,0,0,1-9.1-3.78,19.21,19.21,0,0,1-4.2-7.25,47.05,47.05,0,0,1-1-24,86.62,86.62,0,0,1,18.23-35,46.06,46.06,0,0,1,13.29-10.69A24.12,24.12,0,0,1,217,196.7a19.76,19.76,0,0,1,8.76,3.78,10.53,10.53,0,0,1,1.64,1.42l.47.47a4.13,4.13,0,0,1-4.48,6.74Z"/><path d="M641.6,24.88s-.55,4.45-1.77,12.17c-.63,3.87-1.29,8.52-2.23,13.84s-1.85,11.35-3,17.88l-7.66,44.49-4,24.94c-1.25,8.46-2.44,17.06-3.34,25.61s-1.86,17.05-2.48,25.36S616,205.61,616,213.38a162.26,162.26,0,0,0,1.34,22.12A94,94,0,0,0,622,254.3a68.45,68.45,0,0,0,7.24,14.49,83.27,83.27,0,0,0,7.66,10c2.42,2.58,4.36,4.64,5.79,5.94l2.15,2.06.39.37A6.73,6.73,0,0,1,637,297.78L634.12,296a76.05,76.05,0,0,1-8-5.71,85.67,85.67,0,0,1-10.93-10.93,91,91,0,0,1-11.2-16.8,119,119,0,0,1-8.9-22,160.72,160.72,0,0,1-5.17-25.46,187.94,187.94,0,0,1-1.36-27.16c.05-4.6.3-9.18.57-13.79.44-4.57.79-9.18,1.36-13.73,1.08-9.13,2.67-18.1,4.19-26.92s3.54-17.36,5.44-25.6,4-16.14,6.06-23.59,4.12-14.45,6.14-20.87c4-12.84,7.73-23.46,10.43-30.81s4.42-11.48,4.42-11.48a7.52,7.52,0,0,1,14.42,3.77Z"/><path d="M1065.5,11.69s-1.17,4.8-3.38,13.16l-9,34.5c-3.68,14.27-7.94,30.9-12.22,48.72-2.17,8.91-4.17,18.14-6.27,27.49s-3.93,18.89-5.57,28.4-3.25,19-4.36,28.36-2.1,18.51-2.43,27.33a198.94,198.94,0,0,0,.29,25.17,125.6,125.6,0,0,0,3.67,21.7,87,87,0,0,0,6.47,17,114.18,114.18,0,0,0,7.11,12.1c2.24,3.22,4.08,5.74,5.42,7.41s2,2.63,2,2.63l.36.53a7.17,7.17,0,0,1-10.08,9.9s-1.08-.78-3-2.37a69,69,0,0,1-8-7.49,77.75,77.75,0,0,1-10.1-13.81,106.11,106.11,0,0,1-9.09-20.16c-5.13-15.3-7.85-33.82-7.71-53.16a274.42,274.42,0,0,1,1.69-29.56c1.14-10,2.64-20,4.44-29.87s4-19.7,6.22-29.3,4.73-18.94,7.2-27.95c5-18,10.1-34.63,14.76-48.77s8.87-25.82,11.73-34S1050.43,7,1050.43,7a7.91,7.91,0,0,1,15.07,4.7Z"/><path d="M475.62,225.47l3.21-.34c2-.23,5-.54,8.67-1.21,7.36-1.35,18-3.69,28.8-9.57,5.32-3,10.76-6.86,14.73-11.84,4-4.7,7.6-10.65,4.15-14.14a6.49,6.49,0,0,0-1.63-1.21,9.26,9.26,0,0,0-1-.47c.47.17-1.19-.36-.72-.12.13,0-.11.05-.35.08a4.84,4.84,0,0,0-.8.23,7.9,7.9,0,0,0-1.9,1.07c-2.74,1.86-5.15,5.26-7.28,8.65-4,7.1-8.45,14.28-11.84,22-1.78,3.79-3.31,7.68-4.69,11.54a104,104,0,0,0-3.47,11.43,46,46,0,0,0-1.39,10.55,13.64,13.64,0,0,0,1.52,7.09c.87,1.35,2.07,2.35,4.61,3a25.76,25.76,0,0,0,8.91.46,46.49,46.49,0,0,0,4.94-.69l1.24-.22.31-.05.15,0h.08c-.07,0,.27-.07-.14,0l.68-.16,2.69-.63c3.63-.81,6.87-1.67,10-2.48a221,221,0,0,0,30-10.18,76.43,76.43,0,0,0,10-5.15,4.84,4.84,0,1,1,6.39,7.27,63.55,63.55,0,0,1-11,8c-3.55,2.16-7.94,4.57-13.08,7.08s-11.08,4.89-17.61,7.36c-3.31,1.21-6.8,2.49-10.22,3.61l-2.62.89-.66.22-1,.27-1.51.42a63.17,63.17,0,0,1-6.36,1.38,43.13,43.13,0,0,1-14.87.19,25.33,25.33,0,0,1-16.16-9.68,31.81,31.81,0,0,1-5.78-17.28,59.38,59.38,0,0,1,1.37-15.68,95.42,95.42,0,0,1,10.89-27.36c5-8.31,10.43-16.46,18.3-22.61A61.18,61.18,0,0,1,524.06,179a24.52,24.52,0,0,1,4.13-1.37,13.42,13.42,0,0,1,5.26-.23,10.69,10.69,0,0,1,2.4.63c.63.26,1.27.51,1.9.83a20.7,20.7,0,0,1,3.68,2.3,16.52,16.52,0,0,1,5.24,7.49,19.46,19.46,0,0,1,.87,8.64A28.37,28.37,0,0,1,541.81,211a48.15,48.15,0,0,1-9.35,9,61.47,61.47,0,0,1-10,6.14,79.91,79.91,0,0,1-18.86,6.52,90.36,90.36,0,0,1-15,1.89c-4.17.16-7.37.12-9.64,0l-3.29-.24a4.45,4.45,0,0,1-.14-8.87Z"/><path d="M1039.43,231.31c4.21-.41,8.13-.76,12.22-1.29s8-1.11,12-1.84a150.82,150.82,0,0,0,23.12-5.84,79.62,79.62,0,0,0,10.57-4.44,59.48,59.48,0,0,0,8.74-5.6,17.05,17.05,0,0,0,2.77-2.76,3.56,3.56,0,0,0,.92-2.09,4.8,4.8,0,0,0-1.54-3,15.11,15.11,0,0,0-4.1-2.87l.5.22a5.07,5.07,0,0,0-2.95.3,15.33,15.33,0,0,0-3.88,2.21,45.1,45.1,0,0,0-7.14,7.29l-6.68,8.14c-2.25,2.71-4.36,5.55-6.33,8.47S1073.75,234,1072,237a85.19,85.19,0,0,0-4.78,8.93,42.49,42.49,0,0,0-3.2,8.57,12.79,12.79,0,0,0-.43,5.52c.1.34.06.4.28.65a4.41,4.41,0,0,0,1.74.94,23.25,23.25,0,0,0,8.16.75c1.6-.07,3.26-.24,5-.47.85-.13,1.69-.23,2.55-.39l1.29-.23.65-.11.32-.05.16,0h.12l-.28.08c3.67-.88,7.63-1.7,10.81-2.7a96.63,96.63,0,0,0,10.06-3.38,84.81,84.81,0,0,0,9.49-4.45,45,45,0,0,0,8.36-5.69,29.24,29.24,0,0,0,3.39-3.4,19,19,0,0,0,1.37-1.78c.19-.29.41-.6.55-.86s.34-.69.34-.48a4.93,4.93,0,1,1,9.59,2.26,16.89,16.89,0,0,1-.65,2.2c-.21.63-.46,1.15-.7,1.71a28.88,28.88,0,0,1-1.63,3.09,35.73,35.73,0,0,1-4,5.36,57,57,0,0,1-9.47,8.6,74.88,74.88,0,0,1-10.58,6.53,111.37,111.37,0,0,1-11.2,5.1c-4,1.66-7.43,2.72-11.08,4l-3.32.92c-1,.27-2,.48-3.06.73-2.07.46-4.18.85-6.38,1.13a40.67,40.67,0,0,1-14.6-.39,23.86,23.86,0,0,1-8.55-3.89,20.44,20.44,0,0,1-6.59-8.32c-2.69-6.52-2.12-12.24-1.32-17a61.91,61.91,0,0,1,4.28-13,91.93,91.93,0,0,1,6.22-11.14,117.12,117.12,0,0,1,7.52-9.9c2.71-3.11,5.56-6.08,8.57-8.92a54.67,54.67,0,0,1,10-7.58,69,69,0,0,1,11.76-5.58,37.76,37.76,0,0,1,6.79-1.86,16.71,16.71,0,0,1,8.35.51,4,4,0,0,1,.47.2l0,0a36.81,36.81,0,0,1,6.36,4,16.81,16.81,0,0,1,5.46,7.21,14.75,14.75,0,0,1-.11,10.13,22.4,22.4,0,0,1-4.54,7.33,38.07,38.07,0,0,1-11.86,8.52,85.73,85.73,0,0,1-12.62,5,126.18,126.18,0,0,1-25.78,4.94c-4.32.37-8.63.61-12.94.57s-8.69-.11-12.84-.51h-.06a4.54,4.54,0,0,1,0-9Z"/><path d="M1389.64,103.11l.36,1.43.42,1.65.57,2.4c.46,1.89.83,4,1.16,6.2s.54,4.64.64,7a60.77,60.77,0,0,1-.88,13.24c-.35,1.81-.73,3.31-1,4.38l-.62,1.9a5.07,5.07,0,1,1-9.73-2.83s0,.05,0-.15,0-.46,0-.81c0-.76,0-1.9-.11-3.29a47.93,47.93,0,0,0-2.05-10.15c-.58-1.81-1.25-3.58-1.94-5.21s-1.42-3.13-2.05-4.25l-.92-1.71-.83-1.48-.72-1.29a9.63,9.63,0,0,1,16.8-9.4A10,10,0,0,1,1389.64,103.11Z"/><path d="M1379.41,229.42s0,1.14,0,3-.22,4.62-.59,7.83c-.22,1.6-.38,3.35-.71,5.17l-1,5.72c-.8,4-1.87,8.13-3.12,12.28-2.47,8.32-6,16.44-10,22.45a38.24,38.24,0,0,1-6.16,7.45,18.14,18.14,0,0,1-1.55,1.31l-.68.51-.75.49a15.45,15.45,0,0,1-1.41.8,7.45,7.45,0,0,1-8.27-12.41.73.73,0,0,0-.24-.15l-.12,0v-.22a1.56,1.56,0,0,1,.05-.55c.19-1,.78-3,1.51-5.66,1.43-5.36,3.58-13.09,6.17-20.78s5.4-15.48,7.89-21.23c1.23-2.88,2.36-5.26,3.19-6.91s1.36-2.57,1.36-2.57l.1-.17A7.74,7.74,0,0,1,1375.6,223,7.82,7.82,0,0,1,1379.41,229.42Z"/><path d="M1401.61,245.07l3.47-.15c2.13-.16,5.38-.45,9.45-1a122.64,122.64,0,0,0,32.53-9.59,64.44,64.44,0,0,0,18.58-12.28c2.86-2.62,5.64-5.33,8.33-8a71.79,71.79,0,0,0,7.24-7.91c2-2.65,3.28-5,3.47-7a6,6,0,0,0-.84-3.5,13.65,13.65,0,0,0-3.63-3.7c-5.18-4.63-14.26-.64-20.76,4.91-6.7,5.73-11.9,13.35-16,20.95a106.85,106.85,0,0,0-9.13,22.65c-1.87,7.32-1.78,14.16.22,19.61s6.1,9.85,11.09,13.25a65.4,65.4,0,0,0,15.92,7.28,125.12,125.12,0,0,0,14.1,3.58c4,.85,7.27,1.36,9.48,1.73l3.41.58.14,0a3.76,3.76,0,0,1-.14,7.43l-3.57.47c-2.34.32-5.78.61-10.22.77a98.2,98.2,0,0,1-16.22-.79,67.19,67.19,0,0,1-21.31-6.25,45.68,45.68,0,0,1-11.37-7.84,41.63,41.63,0,0,1-9.07-12.66c-4.73-10-4.81-21.63-2.44-31.93a68,68,0,0,1,14.17-28.1,93.35,93.35,0,0,1,24-20.59,56.08,56.08,0,0,1,15.1-6.54,29.22,29.22,0,0,1,9-.8c.78,0,1.59.17,2.38.27s1.79.42,2.68.64l1.76.57,2.24,1a29.35,29.35,0,0,1,7.64,5A20.44,20.44,0,0,1,1499,196a22.15,22.15,0,0,1,.6,10.58,29.91,29.91,0,0,1-3,8.83c-5.58,10.3-13.9,16.22-22.1,20.12s-16.1,6.53-23.14,9.33a206.82,206.82,0,0,1-35.18,9.2c-4.32.8-7.71,1.26-10.11,1.56l-3.48.48a5.54,5.54,0,1,1-1.5-11l.51,0Z"/><path d="M1297.79,307.66c.92-4.88,2.11-9.78,3-14.57l3.14-14.41c2-9.63,4.06-19.22,5.83-28.81s3.48-19.15,4.77-28.6a104.13,104.13,0,0,0,1-14c0-4.48-.38-9.1-1.81-12.11-.71-1.44-1.35-2.28-2-2.46a5.61,5.61,0,0,0-3.63.22c-3.41,1.15-7.22,3.92-10.68,6.91-7,6.13-13.19,13.73-18.94,21.52a214,214,0,0,0-15.38,24.75,141.75,141.75,0,0,0-6.09,13c-1.76,4.29-3.39,9-3.75,12.58h0a7.42,7.42,0,0,1-14.78-1.29l0-1c.36-7.7.6-15.52.67-23.21,0-3.85,0-7.68-.1-11.43,0-1.88-.15-3.71-.26-5.51l-.23-2.58-.32-2.3-.06-.41a10.92,10.92,0,0,1,21.63-3,11.9,11.9,0,0,1,.11,1.63l0,3.57-.19,3.29c-.17,2.12-.37,4.21-.61,6.24-.48,4.08-1,8.07-1.65,12-1.23,7.93-2.62,15.7-4.15,23.56l-14.73-2.26h0a50,50,0,0,1,2.84-8.26c1.05-2.52,2.17-4.92,3.37-7.25,2.35-4.68,5-9.1,7.61-13.49a290.72,290.72,0,0,1,17.19-25.29c3.06-4.08,6.27-8.07,9.68-11.93a137.22,137.22,0,0,1,10.95-11.18c4-3.48,8.27-6.94,14.28-9.17a16.66,16.66,0,0,1,11-.48,16.19,16.19,0,0,1,8.67,7.49c3.17,5.9,4.21,11.37,5,16.76a132.2,132.2,0,0,1,1.06,15.86c.1,5.22-.09,10.38-.46,15.49s-.9,10.2-1.65,15.22-1.45,10.05-2.37,15-1.85,9.93-2.93,14.86-2.15,9.84-3.38,14.74-2.49,9.69-3.88,14.49a9.17,9.17,0,0,1-17.83-4.21Z"/><path d="M931.38,70.57l1.36-2c.83-1.23,2-3.1,3.45-5.68a81.54,81.54,0,0,0,4.75-9.65,76.93,76.93,0,0,0,4.37-13.49,37.22,37.22,0,0,0,.83-7.59,11.38,11.38,0,0,0-.4-3.11c-.2-.77-.62-1-.13-.39a2.84,2.84,0,0,0,1,.62c.26.12.38.06.16.15a13.91,13.91,0,0,0-2.45,1.31,32.8,32.8,0,0,0-3.45,2.86c-1.16,1.2-2.33,2.45-3.5,3.85-4.66,5.58-9.21,12.37-14.54,19.17S912.33,71.13,907,79.25q-4,6.1-7.94,12.58l-1.84,3-2,3.4-3.87,6.8c-5.17,9.16-10.37,18.74-15.48,28.67-10.09,19.92-20.29,41.17-29,63.64-4.23,11.25-8.41,22.7-11.54,34.34a163.57,163.57,0,0,0-3.77,17.37,67.3,67.3,0,0,0-.82,16.06,33.75,33.75,0,0,0,.9,5.51,13,13,0,0,1,.42,2.18c.22.55,1.53,1.42,3.71,1.67a23.21,23.21,0,0,0,7.63-.55c5.62-1.1,11.38-3.84,16.7-7.13s10.49-7.25,15.65-11.2c20.55-15.94,39.33-34.34,56.24-53.51,8.48-9.56,16.53-19.33,23.8-29.26,3.61-5,7.19-9.87,10.32-14.84a118.94,118.94,0,0,0,8-14.55,28.07,28.07,0,0,0,2-6,5.33,5.33,0,0,0,.09-1.23A3.57,3.57,0,0,0,977,138a4.47,4.47,0,0,0,1.91,1.6c.26.09,0-.06-.66-.12a24.46,24.46,0,0,0-5.8.09,118.4,118.4,0,0,0-15.36,3.08c-5.3,1.39-10.63,3-15.87,4.78a261.62,261.62,0,0,0-30.13,12.33c-9.59,4.51-18.54,9.29-27.82,13.75A480.86,480.86,0,0,1,832.37,194c-15.3,5.29-28.46,9.74-38.64,14.45s-17.39,9.5-21.85,13.29a63.49,63.49,0,0,0-4.95,4.49l-1.62,1.63-.15.15a4.22,4.22,0,0,1-6.11-5.81l1.73-1.89a72,72,0,0,1,5.32-5.24,104.69,104.69,0,0,1,23.31-15.55c10.65-5.45,24-10.54,38.92-16.4s31.56-12.68,48.75-21.84c8.44-4.47,17.4-10,26.84-15.29s19.22-10.8,29.56-16.37c5.19-2.74,10.55-5.46,16.26-7.93a93.85,93.85,0,0,1,18.77-6.17,43.91,43.91,0,0,1,12.12-.88,27.23,27.23,0,0,1,8.13,1.95,20.6,20.6,0,0,1,8.94,7.21,20.87,20.87,0,0,1,3.54,10.34,29.69,29.69,0,0,1-.53,7.92,52.24,52.24,0,0,1-3.9,11.52,107.73,107.73,0,0,1-10.69,17.9c-3.93,5.46-8,10.7-12.36,15.69-8.71,10-18,19.43-27.6,28.58a712.68,712.68,0,0,1-61.6,51.4c-5.4,4-10.9,7.95-16.77,11.65s-11.64,7.56-18.39,11A50.3,50.3,0,0,1,838,294.14a26.55,26.55,0,0,1-15.56-1,24.47,24.47,0,0,1-7.74-5,27.14,27.14,0,0,1-5.12-6.78,38.11,38.11,0,0,1-4.13-13.3,90.44,90.44,0,0,1,.53-22.71,189.12,189.12,0,0,1,4-20.32A309.93,309.93,0,0,1,822,187.71a561.32,561.32,0,0,1,31.1-66.08q8.35-15.21,16.79-29.18l4.24-6.88,2.08-3.33,1.23-1.9,1.09-1.65q4.35-6.57,8.73-12.81c11.84-16.45,22.68-32,37.57-42.29a76.9,76.9,0,0,1,11.8-7.19A24.71,24.71,0,0,1,944.56,14a15.05,15.05,0,0,1,5.52.27,12.8,12.8,0,0,1,5.65,3,15.37,15.37,0,0,1,4.54,8.54,28.49,28.49,0,0,1,.44,6.64,51.33,51.33,0,0,1-1.62,10.49c-3.14,12.41-7.76,20.79-10.69,26.65-1.5,2.87-2.84,5.06-3.68,6.56l-1.23,2.1A7.16,7.16,0,1,1,931.14,71Z"/><path d="M1144.79,220.43l0,0S1144.71,220.39,1144.79,220.43Z"/><path d="M1221.65,244.66c-.32-3.59-.7-7.18-1.34-10.78a82.44,82.44,0,0,0-6.34-21.64,28.4,28.4,0,0,0-7.8-10.24,17.28,17.28,0,0,0-6.76-3.08,16.69,16.69,0,0,0-7.21.2,28.21,28.21,0,0,0-11,5.72,54.23,54.23,0,0,0-8,8,79.54,79.54,0,0,0-7.72,11.1,55.52,55.52,0,0,0-1.92-7.37,31.54,31.54,0,0,0-2.16-5,20.78,20.78,0,0,0-4.34-5.59,9.46,9.46,0,0,0-12.35,14.33,1.33,1.33,0,0,1,.4.53,12.64,12.64,0,0,1,1,2.09,41.69,41.69,0,0,1,1.8,6.05,115.6,115.6,0,0,1,2.13,14.2c.47,4.91.76,9.91.93,14.92l.16,7.54c0,2.5,0,5.08,0,7.47h.07c0,.47,0,.93,0,1.4h0a8,8,0,0,0,16-.16l0-.46c.18-2.77.3-5.35.4-8l.19-7.95c0-3.68,0-7.37-.11-11.09a74.68,74.68,0,0,1,3.57-11.2,70.58,70.58,0,0,1,9.52-16.72,42,42,0,0,1,6.45-6.63,17.74,17.74,0,0,1,7.06-3.82,5.7,5.7,0,0,1,5.41,1.39,15.23,15.23,0,0,1,3.67,6.62,42.44,42.44,0,0,1,1.66,9,89.13,89.13,0,0,1,.33,9.59c0,3.24-.18,6.51-.37,9.79s-.39,6.58-.71,9.88-.53,6.63-.71,9.93-.31,6.67-.26,10.14a8.57,8.57,0,0,0,17,1.58v0a81.06,81.06,0,0,0,1.45-10.38c.29-3.55.4-7.07.36-10.64S1222,248.24,1221.65,244.66Z"/></svg>